<svg version="1.1" id="Layer_1" xmlns="http://www.w3.org/2000/svg" xmlns:xlink="http://www.w3.org/1999/xlink" x="0px" y="0px"
	 width="100%" viewBox="0 0 547 373" enable-background="new 0 0 547 373" xml:space="preserve">
<path fill="#000000" opacity="1.000000" stroke="none" 
	d="
M545.319763,373.613525 
	C364.309265,374.000000 183.618515,374.000000 2.463884,374.000000 
	C1.149644,372.612000 1.522641,371.073120 1.522425,369.604675 
	C1.504527,247.701569 1.504688,125.798447 1.505584,3.895337 
	C1.505588,3.229088 1.520659,2.563570 1.782549,1.449392 
	C182.690750,1.000000 363.381500,1.000000 544.536133,1.000000 
	C547.219727,3.190099 546.473022,6.002261 546.473755,8.589877 
	C546.504272,122.531448 546.499939,236.473038 546.499939,350.414612 
	C546.499939,356.244965 546.522888,362.075439 546.486145,367.905548 
	C546.474731,369.710815 546.825073,371.598480 545.319763,373.613525 
z"/>
<path fill="#141414" opacity="1.000000" stroke="none" 
	d="
M545.500000,374.000000 
	C545.000610,249.977356 545.001221,125.954720 545.000916,1.466041 
	C546.654358,1.048076 548.201843,0.368860 548.123596,3.503086 
	C547.820007,15.662172 548.000000,27.833334 548.000000,40.000000 
	C548.000000,150.000000 548.008179,260.000000 547.896851,369.999908 
	C547.895569,371.252716 549.962952,374.314819 545.500000,374.000000 
z"/>
<path fill="#141414" opacity="1.000000" stroke="none" 
	d="
M1.500000,1.000000 
	C1.998922,125.022644 1.997845,249.045288 1.998384,373.533966 
	C-0.064519,373.102417 1.061584,371.301117 1.060220,370.006622 
	C0.991650,304.927002 1.000000,239.847336 1.000000,174.767654 
	C1.000000,116.845100 1.000000,58.922550 1.500000,1.000000 
z"/>
<path fill="#88C0F8" opacity="1.000000" stroke="none" 
	d="
M274.176666,109.310287 
	C255.407013,109.941536 242.669861,118.914261 235.300690,135.472000 
	C227.590042,152.797012 235.128052,175.825958 251.482910,184.868179 
	C252.561279,176.029678 250.167007,168.135574 246.753372,160.413940 
	C245.960510,158.620468 245.274307,156.779846 244.119690,154.974075 
	C250.404556,159.490891 254.282349,166.226364 257.907227,173.126816 
	C261.268555,179.525650 262.820526,186.478683 264.043884,193.550797 
	C264.640320,196.998871 263.539703,197.506393 260.426880,196.733627 
	C243.569977,192.548798 228.606613,175.808929 226.211349,158.269165 
	C222.614792,131.932999 238.758972,108.841164 264.441132,103.504372 
	C267.255005,102.919640 270.057404,102.961815 273.312805,103.130508 
	C275.828033,104.911629 276.030975,106.847649 274.176666,109.310287 
z"/>
<path fill="#188BDE" opacity="1.000000" stroke="none" 
	d="
M274.259521,109.626175 
	C273.760406,107.745018 273.713104,105.887833 273.703857,103.634033 
	C290.526703,102.644516 303.661713,110.029587 312.704193,123.437119 
	C329.836121,148.839020 321.033264,180.345261 293.689178,194.080978 
	C290.478058,195.694031 286.111542,198.360580 283.633362,196.371048 
	C281.385895,194.566727 283.569885,189.815720 284.389526,186.465988 
	C286.588837,177.477707 290.086548,169.065475 296.153351,161.926437 
	C297.249786,160.636200 297.941437,158.481110 300.815308,159.157043 
	C297.384277,165.635956 295.856018,172.866699 295.243073,180.339050 
	C295.137817,181.622116 294.684692,183.407364 295.813446,184.101669 
	C297.375885,185.062744 298.512115,183.324814 299.600830,182.442749 
	C312.653900,171.867157 317.866516,154.307144 312.744019,138.373398 
	C307.505646,122.079239 293.076843,110.774742 276.206085,109.746780 
	C275.707733,109.716415 275.209564,109.682442 274.259521,109.626175 
z"/>
<path fill="#8BC3FB" opacity="1.000000" stroke="none" 
	d="
M295.264343,240.876312 
	C295.264313,242.355118 295.265839,243.353592 295.264038,244.352081 
	C295.254456,249.702148 292.915283,251.326782 287.648804,249.899139 
	C286.054718,249.467041 286.041199,248.492203 286.040070,247.322739 
	C286.031189,238.169983 285.984344,229.016769 286.065704,219.864746 
	C286.088074,217.350815 292.531769,215.292206 294.633331,217.714569 
	C296.540222,219.912521 297.227692,218.479568 298.497742,217.862762 
	C304.619019,214.889877 308.894775,217.188141 309.065430,223.816010 
	C309.262360,231.466095 308.973541,239.129639 309.214081,246.777298 
	C309.340485,250.795486 306.724060,249.865448 304.584961,249.850693 
	C302.471649,249.836121 299.796936,250.846588 299.941772,246.800690 
	C300.179718,240.152695 300.025787,233.489777 299.987579,226.833435 
	C299.978516,225.254471 300.355560,223.083160 297.803284,223.316803 
	C295.946716,223.486771 295.181549,224.926895 295.231506,226.917343 
	C295.344208,231.407669 295.265289,235.902817 295.264343,240.876312 
z"/>
<path fill="#88C0F8" opacity="1.000000" stroke="none" 
	d="
M260.213379,222.420837 
	C263.803650,217.192276 268.348938,215.508041 274.139282,216.966492 
	C279.668060,218.359039 280.439423,222.953598 280.691803,227.451889 
	C281.063385,234.074615 280.915894,240.726654 280.978333,247.366318 
	C280.987274,248.317017 281.221985,249.761581 279.946503,249.729416 
	C277.608826,249.670425 274.818848,251.123581 273.029541,248.791580 
	C272.046600,247.510483 271.663361,247.364731 270.488281,248.327560 
	C267.012177,251.175751 263.307495,251.318024 260.379333,247.865356 
	C257.352234,244.296066 257.695679,240.135498 260.253296,236.322662 
	C262.381470,233.150040 265.708893,231.419571 269.215332,230.393860 
	C271.845764,229.624374 272.083282,228.070969 271.815582,225.930115 
	C271.683167,224.871155 271.277771,223.981384 270.081635,223.852554 
	C268.898834,223.725159 268.204712,224.375504 268.045929,225.508865 
	C267.252411,231.172531 262.911560,228.079254 260.719971,227.807968 
	C257.241699,227.377426 260.352692,224.528946 260.213379,222.420837 
z"/>
<path fill="#8BC3FB" opacity="1.000000" stroke="none" 
	d="
M254.167938,230.936966 
	C254.323120,233.106522 253.924042,234.203186 251.763428,234.045944 
	C249.442993,233.877090 247.088852,234.156494 244.771042,233.970612 
	C242.111130,233.757278 240.627487,234.414627 241.078400,237.440445 
	C241.402679,239.616501 240.188095,242.911163 243.086029,243.413528 
	C246.094681,243.935120 245.325394,240.680878 245.936157,238.760162 
	C246.942337,235.595901 249.818176,237.605011 251.818802,237.158722 
	C253.984253,236.675674 254.123550,238.157349 254.186050,239.845673 
	C254.391495,245.395569 251.324417,249.308914 246.075851,249.995087 
	C238.635544,250.967789 232.914734,247.915985 232.312622,241.872070 
	C231.754715,236.271774 231.779099,230.519104 232.381516,224.923370 
	C233.020172,218.990799 237.775070,216.107285 244.536377,216.593094 
	C250.509644,217.022263 253.560577,220.030853 254.032516,226.022980 
	C254.150070,227.515411 254.127411,229.018875 254.167938,230.936966 
z"/>
<path fill="#88C0F8" opacity="1.000000" stroke="none" 
	d="
M190.052856,235.881073 
	C190.169571,231.922394 189.918503,228.377975 190.483429,224.968781 
	C191.512512,218.758408 196.085342,215.916550 203.051971,216.634644 
	C209.334473,217.282227 212.229065,220.403519 212.474091,226.688370 
	C212.545486,228.519836 212.447067,230.387527 210.020126,229.807861 
	C207.855652,229.290894 204.431580,231.997940 203.648453,227.583755 
	C203.504120,226.770157 203.569794,225.912415 203.370270,225.117264 
	C203.129929,224.159439 202.772202,223.157333 201.521729,223.111557 
	C200.205627,223.063339 199.765411,224.108704 199.748001,225.060059 
	C199.647797,230.533447 199.616364,236.009628 199.684692,241.483322 
	C199.698822,242.614182 200.166779,243.890747 201.699814,243.818497 
	C203.269684,243.744522 203.204071,242.308945 203.508911,241.256653 
	C204.062271,239.346542 202.460068,235.955948 206.540344,236.476883 
	C208.563965,236.735245 211.442276,234.896881 212.454651,238.223511 
	C213.623306,242.063629 211.340057,247.196457 207.902802,248.961594 
	C198.443558,253.819260 190.164017,247.972366 190.052856,235.881073 
z"/>
<path fill="#246800" opacity="1.000000" stroke="none" 
	d="
M272.720703,153.218719 
	C276.627106,148.428864 280.968140,144.849426 285.611481,141.599365 
	C292.050995,137.092117 295.873444,131.255447 294.645325,121.645035 
	C299.042328,129.929611 299.027924,136.984802 295.457397,143.963562 
	C290.391968,153.864166 283.536743,162.769943 279.580048,173.323807 
	C277.590668,178.630173 276.143066,184.091003 274.167999,189.383331 
	C273.122223,192.185562 273.088043,190.197830 272.920776,188.768875 
	C270.083710,178.145340 270.831543,167.609024 270.970551,157.111786 
	C270.988495,155.758270 271.367157,154.518021 272.720703,153.218719 
z"/>
<path fill="#31AA4B" opacity="1.000000" stroke="none" 
	d="
M273.000916,152.624908 
	C273.044769,164.500916 272.958191,176.061630 272.903259,188.038864 
	C270.640533,184.377396 269.715485,179.793930 268.201263,175.434067 
	C264.733124,165.448273 259.222198,156.606140 253.533691,147.794662 
	C249.331665,141.285690 247.566376,134.124573 250.259872,126.431068 
	C250.466019,125.842201 250.871185,125.323006 251.883163,123.537849 
	C251.759583,133.960419 257.684692,139.233582 264.459167,143.949478 
	C267.745331,146.237091 270.808289,148.777283 273.000916,152.624908 
z"/>
<path fill="#8BC3FB" opacity="1.000000" stroke="none" 
	d="
M217.696411,238.934799 
	C217.696609,228.145294 217.920731,217.837631 217.587265,207.548035 
	C217.453094,203.408035 219.723053,203.919861 222.216492,203.990784 
	C224.547882,204.057114 227.102798,203.110031 227.017853,207.374710 
	C226.759842,220.328171 226.754395,233.293488 227.021027,246.246552 
	C227.104172,250.286331 224.928680,249.946106 222.359970,249.892548 
	C219.939499,249.842072 217.115585,250.612564 217.646179,246.395111 
	C217.934235,244.105499 217.696793,241.749786 217.696411,238.934799 
z"/>
<path fill="#30A64A" opacity="1.000000" stroke="none" 
	d="
M345.972748,249.412689 
	C344.310211,248.486099 343.108154,247.967148 343.119843,250.321182 
	C343.133057,252.982300 343.095612,255.643616 343.089752,258.304871 
	C343.086731,259.678070 342.544434,260.510986 341.045258,260.511963 
	C339.536407,260.512939 339.026245,259.669220 339.026794,258.297180 
	C339.032043,245.322922 339.031281,232.348679 339.026550,219.374420 
	C339.026062,218.009720 339.908508,216.571899 340.967072,217.293228 
	C343.800659,219.224030 346.111176,217.214539 348.639832,216.922241 
	C352.636414,216.460236 355.103882,218.457779 355.926697,222.161011 
	C357.569885,229.556381 357.568604,237.054047 355.862701,244.416794 
	C354.745972,249.236404 352.013702,250.473511 345.972748,249.412689 
z"/>
<path fill="#2EA047" opacity="1.000000" stroke="none" 
	d="
M321.339294,246.336166 
	C326.248749,246.952972 328.467865,244.904694 328.414276,240.247360 
	C328.339630,233.758530 328.377380,227.267883 328.427673,220.778488 
	C328.439911,219.199631 328.042572,217.160080 330.640381,217.181061 
	C333.226288,217.201935 332.812439,219.229904 332.818939,220.813660 
	C332.853790,229.300125 332.820648,237.786850 332.841888,246.273407 
	C332.850555,249.741837 331.621155,251.271027 328.472107,248.778946 
	C326.641357,247.330109 325.745331,249.031143 324.528992,249.467163 
	C319.100922,251.412888 315.872589,249.768036 315.582764,244.034973 
	C315.180023,236.067841 315.407501,228.068558 315.379211,220.083008 
	C315.373444,218.462936 315.637054,217.039597 317.799713,217.169220 
	C320.040405,217.303513 319.845978,218.967117 319.851868,220.440445 
	C319.878418,227.096497 319.821167,233.753235 319.897278,240.408554 
	C319.919342,242.336975 319.374420,244.444138 321.339294,246.336166 
z"/>
<path fill="#31AA4B" opacity="1.000000" stroke="none" 
	d="
M267.441772,122.332802 
	C271.695557,119.256027 275.781006,118.719795 279.536987,122.200775 
	C282.817780,125.241348 283.405121,129.027405 281.330231,133.101730 
	C279.326843,137.035629 276.024933,138.498062 271.809326,137.822952 
	C264.984772,136.730011 262.773163,129.372223 267.441772,122.332802 
z"/>
<path fill="#188BDE" opacity="1.000000" stroke="none" 
	d="
M301.161652,159.104706 
	C301.823029,159.147202 301.869873,158.661362 301.509491,158.385437 
	C301.058105,158.039825 300.747772,158.357361 301.020752,158.999542 
	C301.236755,159.069275 301.181458,159.084045 301.161652,159.104706 
z"/>
<path fill="#88C0F8" opacity="1.000000" stroke="none" 
	d="
M243.742035,154.819794 
	C243.719467,154.760895 243.914993,155.009415 243.914993,155.009415 
	C243.914993,155.009415 243.740540,154.854645 243.720459,154.920944 
	C243.700363,154.987244 243.764587,154.878677 243.742035,154.819794 
z"/>
<path fill="#141414" opacity="1.000000" stroke="none" 
	d="
M271.387177,234.379425 
	C271.827515,236.477005 271.851257,238.468628 271.940399,240.457306 
	C272.025360,242.352325 271.401154,243.987000 269.381012,244.011200 
	C266.792419,244.042236 266.820831,241.867233 266.865875,240.013245 
	C266.934448,237.193253 268.671875,235.503342 271.387177,234.379425 
z"/>
<path fill="#141414" opacity="1.000000" stroke="none" 
	d="
M241.836060,224.194092 
	C245.745529,222.523529 245.649414,225.164307 245.865433,227.451187 
	C246.057114,229.480255 244.882843,230.173447 243.151749,229.826340 
	C239.388596,229.071762 241.309570,226.512863 241.836060,224.194092 
z"/>
<path fill="#000000" opacity="1.000000" stroke="none" 
	d="
M343.115692,236.888123 
	C343.117554,232.591141 343.206482,228.771240 343.094421,224.957260 
	C343.000214,221.751740 344.955963,220.479721 347.603271,220.045303 
	C350.586212,219.555771 351.789764,221.550354 352.200226,224.090454 
	C353.186279,230.192932 353.105560,236.314545 352.207672,242.419342 
	C351.808014,245.136597 350.690979,247.288940 347.391296,246.800385 
	C344.318207,246.345367 342.670441,244.683914 343.090179,241.347656 
	C343.254639,240.040649 343.116180,238.695526 343.115692,236.888123 
z"/>
</svg>